<svg xmlns:xlink="http://www.w3.org/1999/xlink" xmlns="http://www.w3.org/2000/svg" viewBox="0 0 24 24" width="24" height="24" fill="currentColor" class="mt-1"><path d="M15.502 3.75a2.25 2.25 0 0 1 2.073 1.384l-.029-.061 2.946 5.1c.297.507.47 1.077.502 1.66l.006.22V18a2.25 2.25 0 0 1-2.25 2.25H5.25A2.25 2.25 0 0 1 3 18v-5.945a3.697 3.697 0 0 1 .508-1.881L6.49 5.072 6.524 5a2.255 2.255 0 0 1 1.824-1.24l.15-.009h7.005ZM4.5 12.053V18c0 .414.336.75.75.75h13.5a.75.75 0 0 0 .75-.75v-6h-2.474a.753.753 0 0 0-.694.494l-.03.094A4.5 4.5 0 0 1 12 15.768a4.505 4.505 0 0 1-4.252-3.031l-.058-.178a.75.75 0 0 0-.619-.552L6.983 12H4.502l-.002.053ZM15.502 5.25H8.52a.75.75 0 0 0-.672.461l-.045.09L5.054 10.5l1.938.001a2.24 2.24 0 0 1 2.14 1.648A3 3 0 0 0 12 14.268c1.318 0 2.481-.86 2.86-2.092a2.251 2.251 0 0 1 2.02-1.67l.137-.006h1.931l-2.715-4.702-.082-.167a.75.75 0 0 0-.649-.381Z" fill="#4B5259"></path></svg>